<?xml version="1.0" encoding="utf-8" standalone="no"?>
<!DOCTYPE svg PUBLIC "-//W3C//DTD SVG 1.1//EN"
  "http://www.w3.org/Graphics/SVG/1.1/DTD/svg11.dtd">
<svg xmlns:xlink="http://www.w3.org/1999/xlink" width="460.8pt" height="345.6pt" viewBox="0 0 460.8 345.6" xmlns="http://www.w3.org/2000/svg" version="1.1">
 <metadata>
  <rdf:RDF xmlns:dc="http://purl.org/dc/elements/1.1/" xmlns:cc="http://creativecommons.org/ns#" xmlns:rdf="http://www.w3.org/1999/02/22-rdf-syntax-ns#">
   <cc:Work>
    <dc:type rdf:resource="http://purl.org/dc/dcmitype/StillImage"/>
    <dc:date>2023-01-12T14:29:25.164517</dc:date>
    <dc:format>image/svg+xml</dc:format>
    <dc:creator>
     <cc:Agent>
      <dc:title>Matplotlib v3.6.3, https://matplotlib.org/</dc:title>
     </cc:Agent>
    </dc:creator>
   </cc:Work>
  </rdf:RDF>
 </metadata>
 <defs>
  <style type="text/css">*{stroke-linejoin: round; stroke-linecap: butt}</style>
 </defs>
 <g id="figure_1">
  <g id="patch_1">
   <path d="M 0 345.6 
L 460.8 345.6 
L 460.8 0 
L 0 0 
z
" style="fill: #ffffff"/>
  </g>
  <g id="axes_1">
   <g id="patch_2">
    <path d="M 57.6 307.584 
L 414.72 307.584 
L 414.72 41.472 
L 57.6 41.472 
z
" style="fill: #ffffff"/>
   </g>
   <g id="matplotlib.axis_1">
    <g id="xtick_1">
     <g id="line2d_1">
      <defs>
       <path id="m88d38574b8" d="M 0 0 
L 0 3.5 
" style="stroke: #000000; stroke-width: 0.8"/>
      </defs>
      <g>
       <use xlink:href="#m88d38574b8" x="73.832727" y="307.584" style="stroke: #000000; stroke-width: 0.8"/>
      </g>
     </g>
     <g id="text_1">
      <!-- 0 -->
      <g transform="translate(70.651477 322.182437) scale(0.1 -0.1)">
       <defs>
        <path id="DejaVuSans-30" d="M 2034 4250 
Q 1547 4250 1301 3770 
Q 1056 3291 1056 2328 
Q 1056 1369 1301 889 
Q 1547 409 2034 409 
Q 2525 409 2770 889 
Q 3016 1369 3016 2328 
Q 3016 3291 2770 3770 
Q 2525 4250 2034 4250 
z
M 2034 4750 
Q 2819 4750 3233 4129 
Q 3647 3509 3647 2328 
Q 3647 1150 3233 529 
Q 2819 -91 2034 -91 
Q 1250 -91 836 529 
Q 422 1150 422 2328 
Q 422 3509 836 4129 
Q 1250 4750 2034 4750 
z
" transform="scale(0.015625)"/>
       </defs>
       <use xlink:href="#DejaVuSans-30"/>
      </g>
     </g>
    </g>
    <g id="xtick_2">
     <g id="line2d_2">
      <g>
       <use xlink:href="#m88d38574b8" x="125.503103" y="307.584" style="stroke: #000000; stroke-width: 0.8"/>
      </g>
     </g>
     <g id="text_2">
      <!-- 5 -->
      <g transform="translate(122.321853 322.182437) scale(0.1 -0.1)">
       <defs>
        <path id="DejaVuSans-35" d="M 691 4666 
L 3169 4666 
L 3169 4134 
L 1269 4134 
L 1269 2991 
Q 1406 3038 1543 3061 
Q 1681 3084 1819 3084 
Q 2600 3084 3056 2656 
Q 3513 2228 3513 1497 
Q 3513 744 3044 326 
Q 2575 -91 1722 -91 
Q 1428 -91 1123 -41 
Q 819 9 494 109 
L 494 744 
Q 775 591 1075 516 
Q 1375 441 1709 441 
Q 2250 441 2565 725 
Q 2881 1009 2881 1497 
Q 2881 1984 2565 2268 
Q 2250 2553 1709 2553 
Q 1456 2553 1204 2497 
Q 953 2441 691 2322 
L 691 4666 
z
" transform="scale(0.015625)"/>
       </defs>
       <use xlink:href="#DejaVuSans-35"/>
      </g>
     </g>
    </g>
    <g id="xtick_3">
     <g id="line2d_3">
      <g>
       <use xlink:href="#m88d38574b8" x="177.173479" y="307.584" style="stroke: #000000; stroke-width: 0.8"/>
      </g>
     </g>
     <g id="text_3">
      <!-- 10 -->
      <g transform="translate(170.810979 322.182437) scale(0.1 -0.1)">
       <defs>
        <path id="DejaVuSans-31" d="M 794 531 
L 1825 531 
L 1825 4091 
L 703 3866 
L 703 4441 
L 1819 4666 
L 2450 4666 
L 2450 531 
L 3481 531 
L 3481 0 
L 794 0 
L 794 531 
z
" transform="scale(0.015625)"/>
       </defs>
       <use xlink:href="#DejaVuSans-31"/>
       <use xlink:href="#DejaVuSans-30" x="63.623047"/>
      </g>
     </g>
    </g>
    <g id="xtick_4">
     <g id="line2d_4">
      <g>
       <use xlink:href="#m88d38574b8" x="228.843854" y="307.584" style="stroke: #000000; stroke-width: 0.8"/>
      </g>
     </g>
     <g id="text_4">
      <!-- 15 -->
      <g transform="translate(222.481354 322.182437) scale(0.1 -0.1)">
       <use xlink:href="#DejaVuSans-31"/>
       <use xlink:href="#DejaVuSans-35" x="63.623047"/>
      </g>
     </g>
    </g>
    <g id="xtick_5">
     <g id="line2d_5">
      <g>
       <use xlink:href="#m88d38574b8" x="280.51423" y="307.584" style="stroke: #000000; stroke-width: 0.8"/>
      </g>
     </g>
     <g id="text_5">
      <!-- 20 -->
      <g transform="translate(274.15173 322.182437) scale(0.1 -0.1)">
       <defs>
        <path id="DejaVuSans-32" d="M 1228 531 
L 3431 531 
L 3431 0 
L 469 0 
L 469 531 
Q 828 903 1448 1529 
Q 2069 2156 2228 2338 
Q 2531 2678 2651 2914 
Q 2772 3150 2772 3378 
Q 2772 3750 2511 3984 
Q 2250 4219 1831 4219 
Q 1534 4219 1204 4116 
Q 875 4013 500 3803 
L 500 4441 
Q 881 4594 1212 4672 
Q 1544 4750 1819 4750 
Q 2544 4750 2975 4387 
Q 3406 4025 3406 3419 
Q 3406 3131 3298 2873 
Q 3191 2616 2906 2266 
Q 2828 2175 2409 1742 
Q 1991 1309 1228 531 
z
" transform="scale(0.015625)"/>
       </defs>
       <use xlink:href="#DejaVuSans-32"/>
       <use xlink:href="#DejaVuSans-30" x="63.623047"/>
      </g>
     </g>
    </g>
    <g id="xtick_6">
     <g id="line2d_6">
      <g>
       <use xlink:href="#m88d38574b8" x="332.184606" y="307.584" style="stroke: #000000; stroke-width: 0.8"/>
      </g>
     </g>
     <g id="text_6">
      <!-- 25 -->
      <g transform="translate(325.822106 322.182437) scale(0.1 -0.1)">
       <use xlink:href="#DejaVuSans-32"/>
       <use xlink:href="#DejaVuSans-35" x="63.623047"/>
      </g>
     </g>
    </g>
    <g id="xtick_7">
     <g id="line2d_7">
      <g>
       <use xlink:href="#m88d38574b8" x="383.854981" y="307.584" style="stroke: #000000; stroke-width: 0.8"/>
      </g>
     </g>
     <g id="text_7">
      <!-- 30 -->
      <g transform="translate(377.492481 322.182437) scale(0.1 -0.1)">
       <defs>
        <path id="DejaVuSans-33" d="M 2597 2516 
Q 3050 2419 3304 2112 
Q 3559 1806 3559 1356 
Q 3559 666 3084 287 
Q 2609 -91 1734 -91 
Q 1441 -91 1130 -33 
Q 819 25 488 141 
L 488 750 
Q 750 597 1062 519 
Q 1375 441 1716 441 
Q 2309 441 2620 675 
Q 2931 909 2931 1356 
Q 2931 1769 2642 2001 
Q 2353 2234 1838 2234 
L 1294 2234 
L 1294 2753 
L 1863 2753 
Q 2328 2753 2575 2939 
Q 2822 3125 2822 3475 
Q 2822 3834 2567 4026 
Q 2313 4219 1838 4219 
Q 1578 4219 1281 4162 
Q 984 4106 628 3988 
L 628 4550 
Q 988 4650 1302 4700 
Q 1616 4750 1894 4750 
Q 2613 4750 3031 4423 
Q 3450 4097 3450 3541 
Q 3450 3153 3228 2886 
Q 3006 2619 2597 2516 
z
" transform="scale(0.015625)"/>
       </defs>
       <use xlink:href="#DejaVuSans-33"/>
       <use xlink:href="#DejaVuSans-30" x="63.623047"/>
      </g>
     </g>
    </g>
    <g id="text_8">
     <!-- X Axis -->
     <g transform="translate(220.7725 335.860562) scale(0.1 -0.1)">
      <defs>
       <path id="DejaVuSans-58" d="M 403 4666 
L 1081 4666 
L 2241 2931 
L 3406 4666 
L 4084 4666 
L 2584 2425 
L 4184 0 
L 3506 0 
L 2194 1984 
L 872 0 
L 191 0 
L 1856 2491 
L 403 4666 
z
" transform="scale(0.015625)"/>
       <path id="DejaVuSans-20" transform="scale(0.015625)"/>
       <path id="DejaVuSans-41" d="M 2188 4044 
L 1331 1722 
L 3047 1722 
L 2188 4044 
z
M 1831 4666 
L 2547 4666 
L 4325 0 
L 3669 0 
L 3244 1197 
L 1141 1197 
L 716 0 
L 50 0 
L 1831 4666 
z
" transform="scale(0.015625)"/>
       <path id="DejaVuSans-78" d="M 3513 3500 
L 2247 1797 
L 3578 0 
L 2900 0 
L 1881 1375 
L 863 0 
L 184 0 
L 1544 1831 
L 300 3500 
L 978 3500 
L 1906 2253 
L 2834 3500 
L 3513 3500 
z
" transform="scale(0.015625)"/>
       <path id="DejaVuSans-69" d="M 603 3500 
L 1178 3500 
L 1178 0 
L 603 0 
L 603 3500 
z
M 603 4863 
L 1178 4863 
L 1178 4134 
L 603 4134 
L 603 4863 
z
" transform="scale(0.015625)"/>
       <path id="DejaVuSans-73" d="M 2834 3397 
L 2834 2853 
Q 2591 2978 2328 3040 
Q 2066 3103 1784 3103 
Q 1356 3103 1142 2972 
Q 928 2841 928 2578 
Q 928 2378 1081 2264 
Q 1234 2150 1697 2047 
L 1894 2003 
Q 2506 1872 2764 1633 
Q 3022 1394 3022 966 
Q 3022 478 2636 193 
Q 2250 -91 1575 -91 
Q 1294 -91 989 -36 
Q 684 19 347 128 
L 347 722 
Q 666 556 975 473 
Q 1284 391 1588 391 
Q 1994 391 2212 530 
Q 2431 669 2431 922 
Q 2431 1156 2273 1281 
Q 2116 1406 1581 1522 
L 1381 1569 
Q 847 1681 609 1914 
Q 372 2147 372 2553 
Q 372 3047 722 3315 
Q 1072 3584 1716 3584 
Q 2034 3584 2315 3537 
Q 2597 3491 2834 3397 
z
" transform="scale(0.015625)"/>
      </defs>
      <use xlink:href="#DejaVuSans-58"/>
      <use xlink:href="#DejaVuSans-20" x="68.505859"/>
      <use xlink:href="#DejaVuSans-41" x="100.292969"/>
      <use xlink:href="#DejaVuSans-78" x="168.701172"/>
      <use xlink:href="#DejaVuSans-69" x="227.880859"/>
      <use xlink:href="#DejaVuSans-73" x="255.664062"/>
     </g>
    </g>
   </g>
   <g id="matplotlib.axis_2">
    <g id="ytick_1">
     <g id="line2d_8">
      <defs>
       <path id="mabe2a08950" d="M 0 0 
L -3.5 0 
" style="stroke: #000000; stroke-width: 0.8"/>
      </defs>
      <g>
       <use xlink:href="#mabe2a08950" x="57.6" y="293.033385" style="stroke: #000000; stroke-width: 0.8"/>
      </g>
     </g>
     <g id="text_9">
      <!-- −3.75 -->
      <g transform="translate(19.954687 296.832603) scale(0.1 -0.1)">
       <defs>
        <path id="DejaVuSans-2212" d="M 678 2272 
L 4684 2272 
L 4684 1741 
L 678 1741 
L 678 2272 
z
" transform="scale(0.015625)"/>
        <path id="DejaVuSans-2e" d="M 684 794 
L 1344 794 
L 1344 0 
L 684 0 
L 684 794 
z
" transform="scale(0.015625)"/>
        <path id="DejaVuSans-37" d="M 525 4666 
L 3525 4666 
L 3525 4397 
L 1831 0 
L 1172 0 
L 2766 4134 
L 525 4134 
L 525 4666 
z
" transform="scale(0.015625)"/>
       </defs>
       <use xlink:href="#DejaVuSans-2212"/>
       <use xlink:href="#DejaVuSans-33" x="83.789062"/>
       <use xlink:href="#DejaVuSans-2e" x="147.412109"/>
       <use xlink:href="#DejaVuSans-37" x="179.199219"/>
       <use xlink:href="#DejaVuSans-35" x="242.822266"/>
      </g>
     </g>
    </g>
    <g id="ytick_2">
     <g id="line2d_9">
      <g>
       <use xlink:href="#mabe2a08950" x="57.6" y="262.793126" style="stroke: #000000; stroke-width: 0.8"/>
      </g>
     </g>
     <g id="text_10">
      <!-- −3.50 -->
      <g transform="translate(19.954687 266.592345) scale(0.1 -0.1)">
       <use xlink:href="#DejaVuSans-2212"/>
       <use xlink:href="#DejaVuSans-33" x="83.789062"/>
       <use xlink:href="#DejaVuSans-2e" x="147.412109"/>
       <use xlink:href="#DejaVuSans-35" x="179.199219"/>
       <use xlink:href="#DejaVuSans-30" x="242.822266"/>
      </g>
     </g>
    </g>
    <g id="ytick_3">
     <g id="line2d_10">
      <g>
       <use xlink:href="#mabe2a08950" x="57.6" y="232.552868" style="stroke: #000000; stroke-width: 0.8"/>
      </g>
     </g>
     <g id="text_11">
      <!-- −3.25 -->
      <g transform="translate(19.954687 236.352087) scale(0.1 -0.1)">
       <use xlink:href="#DejaVuSans-2212"/>
       <use xlink:href="#DejaVuSans-33" x="83.789062"/>
       <use xlink:href="#DejaVuSans-2e" x="147.412109"/>
       <use xlink:href="#DejaVuSans-32" x="179.199219"/>
       <use xlink:href="#DejaVuSans-35" x="242.822266"/>
      </g>
     </g>
    </g>
    <g id="ytick_4">
     <g id="line2d_11">
      <g>
       <use xlink:href="#mabe2a08950" x="57.6" y="202.31261" style="stroke: #000000; stroke-width: 0.8"/>
      </g>
     </g>
     <g id="text_12">
      <!-- −3.00 -->
      <g transform="translate(19.954687 206.111828) scale(0.1 -0.1)">
       <use xlink:href="#DejaVuSans-2212"/>
       <use xlink:href="#DejaVuSans-33" x="83.789062"/>
       <use xlink:href="#DejaVuSans-2e" x="147.412109"/>
       <use xlink:href="#DejaVuSans-30" x="179.199219"/>
       <use xlink:href="#DejaVuSans-30" x="242.822266"/>
      </g>
     </g>
    </g>
    <g id="ytick_5">
     <g id="line2d_12">
      <g>
       <use xlink:href="#mabe2a08950" x="57.6" y="172.072351" style="stroke: #000000; stroke-width: 0.8"/>
      </g>
     </g>
     <g id="text_13">
      <!-- −2.75 -->
      <g transform="translate(19.954687 175.87157) scale(0.1 -0.1)">
       <use xlink:href="#DejaVuSans-2212"/>
       <use xlink:href="#DejaVuSans-32" x="83.789062"/>
       <use xlink:href="#DejaVuSans-2e" x="147.412109"/>
       <use xlink:href="#DejaVuSans-37" x="179.199219"/>
       <use xlink:href="#DejaVuSans-35" x="242.822266"/>
      </g>
     </g>
    </g>
    <g id="ytick_6">
     <g id="line2d_13">
      <g>
       <use xlink:href="#mabe2a08950" x="57.6" y="141.832093" style="stroke: #000000; stroke-width: 0.8"/>
      </g>
     </g>
     <g id="text_14">
      <!-- −2.50 -->
      <g transform="translate(19.954687 145.631312) scale(0.1 -0.1)">
       <use xlink:href="#DejaVuSans-2212"/>
       <use xlink:href="#DejaVuSans-32" x="83.789062"/>
       <use xlink:href="#DejaVuSans-2e" x="147.412109"/>
       <use xlink:href="#DejaVuSans-35" x="179.199219"/>
       <use xlink:href="#DejaVuSans-30" x="242.822266"/>
      </g>
     </g>
    </g>
    <g id="ytick_7">
     <g id="line2d_14">
      <g>
       <use xlink:href="#mabe2a08950" x="57.6" y="111.591834" style="stroke: #000000; stroke-width: 0.8"/>
      </g>
     </g>
     <g id="text_15">
      <!-- −2.25 -->
      <g transform="translate(19.954687 115.391053) scale(0.1 -0.1)">
       <use xlink:href="#DejaVuSans-2212"/>
       <use xlink:href="#DejaVuSans-32" x="83.789062"/>
       <use xlink:href="#DejaVuSans-2e" x="147.412109"/>
       <use xlink:href="#DejaVuSans-32" x="179.199219"/>
       <use xlink:href="#DejaVuSans-35" x="242.822266"/>
      </g>
     </g>
    </g>
    <g id="ytick_8">
     <g id="line2d_15">
      <g>
       <use xlink:href="#mabe2a08950" x="57.6" y="81.351576" style="stroke: #000000; stroke-width: 0.8"/>
      </g>
     </g>
     <g id="text_16">
      <!-- −2.00 -->
      <g transform="translate(19.954687 85.150795) scale(0.1 -0.1)">
       <use xlink:href="#DejaVuSans-2212"/>
       <use xlink:href="#DejaVuSans-32" x="83.789062"/>
       <use xlink:href="#DejaVuSans-2e" x="147.412109"/>
       <use xlink:href="#DejaVuSans-30" x="179.199219"/>
       <use xlink:href="#DejaVuSans-30" x="242.822266"/>
      </g>
     </g>
    </g>
    <g id="ytick_9">
     <g id="line2d_16">
      <g>
       <use xlink:href="#mabe2a08950" x="57.6" y="51.111318" style="stroke: #000000; stroke-width: 0.8"/>
      </g>
     </g>
     <g id="text_17">
      <!-- −1.75 -->
      <g transform="translate(19.954687 54.910537) scale(0.1 -0.1)">
       <use xlink:href="#DejaVuSans-2212"/>
       <use xlink:href="#DejaVuSans-31" x="83.789062"/>
       <use xlink:href="#DejaVuSans-2e" x="147.412109"/>
       <use xlink:href="#DejaVuSans-37" x="179.199219"/>
       <use xlink:href="#DejaVuSans-35" x="242.822266"/>
      </g>
     </g>
    </g>
    <g id="text_18">
     <!-- Y Axis -->
     <g transform="translate(13.875 189.544406) rotate(-90) scale(0.1 -0.1)">
      <defs>
       <path id="DejaVuSans-59" d="M -13 4666 
L 666 4666 
L 1959 2747 
L 3244 4666 
L 3922 4666 
L 2272 2222 
L 2272 0 
L 1638 0 
L 1638 2222 
L -13 4666 
z
" transform="scale(0.015625)"/>
      </defs>
      <use xlink:href="#DejaVuSans-59"/>
      <use xlink:href="#DejaVuSans-20" x="61.083984"/>
      <use xlink:href="#DejaVuSans-41" x="92.871094"/>
      <use xlink:href="#DejaVuSans-78" x="161.279297"/>
      <use xlink:href="#DejaVuSans-69" x="220.458984"/>
      <use xlink:href="#DejaVuSans-73" x="248.242188"/>
     </g>
    </g>
   </g>
   <g id="line2d_17">
    <path d="M 73.832727 88.995737 
L 75.132645 73.869418 
L 76.107584 65.068643 
L 77.082523 58.667306 
L 77.732482 55.804329 
L 78.382441 54.099203 
L 78.70742 53.686478 
L 79.0324 53.568559 
L 79.357379 53.745734 
L 79.682359 54.21757 
L 80.007338 54.982918 
L 80.657297 57.385964 
L 81.307256 60.931437 
L 81.957215 65.58476 
L 82.932154 74.539843 
L 83.907093 85.686748 
L 85.207011 103.53019 
L 86.831908 129.62774 
L 89.431744 176.328136 
L 92.35656 228.169817 
L 93.981458 253.048032 
L 95.281376 269.582773 
L 96.256314 279.586316 
L 97.231253 287.286901 
L 97.881212 291.055647 
L 98.531171 293.68796 
L 99.18113 295.158168 
L 99.50611 295.452555 
L 99.831089 295.451933 
L 100.156069 295.156305 
L 100.481048 294.566391 
L 101.131007 292.510177 
L 101.780966 289.303345 
L 102.430925 284.977169 
L 103.405864 276.484314 
L 104.380803 265.7565 
L 105.680721 248.389022 
L 107.305618 222.727986 
L 109.580475 182.272898 
L 112.83027 124.113626 
L 114.455168 98.761505 
L 115.755086 81.725583 
L 116.730025 71.287435 
L 117.704963 63.112404 
L 118.354922 59.010334 
L 119.004881 56.034848 
L 119.65484 54.214966 
L 119.97982 53.744369 
L 120.304799 53.568437 
L 120.629779 53.687598 
L 120.954758 54.101564 
L 121.279738 54.809323 
L 121.929697 57.098603 
L 122.579656 60.533112 
L 123.229615 65.079356 
L 124.204554 73.883376 
L 125.179492 84.893607 
L 126.47941 102.582327 
L 128.104308 128.538917 
L 130.379165 169.179885 
L 133.62896 227.11425 
L 135.253857 252.150627 
L 136.553776 268.851691 
L 137.528714 278.999045 
L 138.503653 286.856315 
L 139.153612 290.734982 
L 139.803571 293.480343 
L 140.45353 295.065625 
L 140.778509 295.417958 
L 141.103489 295.475366 
L 141.428468 295.237711 
L 141.753448 294.705571 
L 142.403407 292.763748 
L 143.053366 289.668833 
L 143.703325 285.45101 
L 144.678264 277.111701 
L 145.653202 266.52368 
L 146.95312 249.315956 
L 148.578018 223.803289 
L 150.852875 183.445002 
L 154.427649 119.790994 
L 156.052547 95.080217 
L 157.352465 78.720587 
L 158.327404 68.86802 
L 159.302342 61.331605 
L 159.952301 57.677869 
L 160.60226 55.163712 
L 161.252219 53.813655 
L 161.577199 53.579726 
L 161.902179 53.640864 
L 162.227158 53.996919 
L 162.552138 54.647023 
L 163.202097 56.822321 
L 163.852056 60.145542 
L 164.502015 64.584278 
L 165.476953 73.236403 
L 166.451892 84.108922 
L 167.75181 101.641252 
L 169.376708 127.454434 
L 171.651564 168.006405 
L 174.90136 226.053721 
L 176.526257 251.245899 
L 177.826175 268.11171 
L 178.801114 278.401918 
L 179.776052 286.415131 
L 180.426011 290.403354 
L 181.075971 293.261505 
L 181.72593 294.96171 
L 182.050909 295.371955 
L 182.375889 295.487389 
L 182.700868 295.307729 
L 183.025848 294.833414 
L 183.350827 294.065601 
L 184.000786 291.657686 
L 184.650745 288.107466 
L 185.300704 283.449566 
L 186.275643 274.48803 
L 187.250581 263.335294 
L 188.5505 245.485261 
L 190.175397 219.381727 
L 192.775233 172.677744 
L 195.700049 120.841282 
L 197.324947 95.969895 
L 198.624865 79.442315 
L 199.599803 69.444954 
L 200.574742 61.751097 
L 201.224701 57.987069 
L 201.87466 55.359605 
L 202.524619 53.89433 
L 202.849599 53.602426 
L 203.174578 53.605533 
L 203.499558 53.903645 
L 203.824537 54.496033 
L 204.474496 56.557143 
L 205.124455 59.768763 
L 205.774414 64.099572 
L 206.749353 72.598986 
L 207.724292 83.332767 
L 209.02421 100.707053 
L 210.649107 126.374391 
L 212.923964 166.833541 
L 216.173759 224.988331 
L 217.798657 250.333933 
L 219.098575 267.362901 
L 220.073514 277.794992 
L 221.048452 285.963391 
L 221.698411 290.060793 
L 222.34837 293.031464 
L 222.998329 294.846434 
L 223.323309 295.314553 
L 223.648288 295.488 
L 223.973268 295.366353 
L 224.298247 294.949907 
L 224.623227 294.239679 
L 225.273186 291.945521 
L 225.923145 288.506251 
L 226.573104 283.955411 
L 227.548043 275.144903 
L 228.522981 264.128796 
L 229.822899 246.433413 
L 231.447797 220.470733 
L 233.722654 179.826039 
L 236.972449 121.896635 
L 238.597346 96.866985 
L 239.897265 80.173014 
L 240.872203 70.031801 
L 241.847142 62.181229 
L 242.497101 58.307263 
L 243.14706 55.56674 
L 243.797019 53.986385 
L 244.121998 53.636534 
L 244.446978 53.581612 
L 244.771957 53.821751 
L 245.096937 54.356367 
L 245.746896 56.303095 
L 246.396855 59.40281 
L 247.046814 63.625284 
L 248.021753 71.971186 
L 248.996691 82.565217 
L 250.296609 99.779818 
L 251.921507 125.298891 
L 254.196364 165.661402 
L 257.771138 229.310094 
L 259.396036 254.013938 
L 260.695954 270.366339 
L 261.670893 280.212682 
L 262.645831 287.742335 
L 263.29579 291.391339 
L 263.945749 293.900636 
L 264.595708 295.245755 
L 264.920688 295.477199 
L 265.245667 295.413576 
L 265.570647 295.055039 
L 265.895627 294.402464 
L 266.545586 292.222279 
L 267.195545 288.894283 
L 267.845504 284.450933 
L 268.820442 275.792284 
L 269.795381 264.913844 
L 271.095299 247.37478 
L 272.720197 221.555405 
L 274.995053 180.999542 
L 278.244848 122.956953 
L 279.869746 97.771401 
L 281.169664 80.912615 
L 282.144603 70.628507 
L 283.119541 62.62196 
L 283.7695 58.638423 
L 284.419459 55.785098 
L 285.069419 54.089813 
L 285.394398 53.682048 
L 285.719378 53.5691 
L 286.044357 53.751245 
L 286.369337 54.228038 
L 286.694316 54.998316 
L 287.344275 57.4111 
L 287.994234 60.966065 
L 288.644193 65.628543 
L 289.619132 74.59653 
L 290.59407 85.755096 
L 291.893989 103.611716 
L 293.518886 129.72123 
L 296.118722 176.428791 
L 299.043538 228.260025 
L 300.668436 253.124579 
L 301.968354 269.644996 
L 302.943292 279.636174 
L 303.918231 287.3233 
L 304.56819 291.082611 
L 305.218149 293.705226 
L 305.868108 295.165568 
L 306.193088 295.454988 
L 306.518067 295.449395 
L 306.843047 295.1488 
L 307.168026 294.553939 
L 307.817985 292.487933 
L 308.467944 289.271525 
L 309.117903 284.936084 
L 310.092842 276.430111 
L 311.067781 265.690365 
L 312.367699 248.309276 
L 313.992596 222.63564 
L 316.267453 182.172435 
L 319.517248 124.022137 
L 321.142146 98.683059 
L 322.442064 81.661048 
L 323.417002 71.235015 
L 324.391941 63.073248 
L 325.0419 58.980515 
L 325.691859 56.014659 
L 326.341818 54.204603 
L 326.666798 53.738962 
L 326.991777 53.568 
L 327.316757 53.692133 
L 327.641736 54.111059 
L 327.966716 54.823755 
L 328.616675 57.122791 
L 329.266634 60.566821 
L 329.916593 65.122256 
L 330.891532 73.939251 
L 331.86647 84.961233 
L 333.166388 102.663276 
L 334.791286 128.63204 
L 337.066143 169.280455 
L 340.315938 227.204887 
L 341.940835 252.227806 
L 343.240753 268.91468 
L 344.215692 279.04975 
L 345.190631 286.893624 
L 345.84059 290.762887 
L 346.490549 293.498572 
L 347.140508 295.074 
L 347.465487 295.421369 
L 347.790467 295.473805 
L 348.115446 295.231182 
L 348.440426 294.69409 
L 349.090385 292.742458 
L 349.740344 289.637942 
L 350.390303 285.41082 
L 351.365242 277.058325 
L 352.34018 266.458286 
L 353.640098 249.23681 
L 355.264996 223.711336 
L 357.539853 183.344607 
L 361.114627 119.701243 
L 362.739525 95.004336 
L 364.039443 78.659168 
L 365.014382 68.819051 
L 365.98932 61.296159 
L 366.639279 57.651889 
L 367.289238 55.147452 
L 367.939197 53.807272 
L 368.264177 53.578312 
L 368.589156 53.644421 
L 368.914136 54.00544 
L 369.239115 54.660486 
L 369.889075 56.845558 
L 370.539034 60.178327 
L 371.188993 64.626291 
L 372.163931 73.291463 
L 373.13887 84.175821 
L 374.438788 101.721616 
L 376.063686 127.547181 
L 378.338542 168.106927 
L 381.588337 226.14478 
L 383.213235 251.323701 
L 384.513153 268.175459 
L 385.488092 278.453465 
L 386.46303 286.453346 
L 387.112989 290.432196 
L 387.762948 293.280694 
L 388.412907 294.971059 
L 388.737887 295.376344 
L 389.062867 295.486806 
L 389.387846 295.302176 
L 389.712826 294.822905 
L 390.037805 294.050161 
L 390.687764 291.63251 
L 391.337723 288.072799 
L 391.987682 283.405746 
L 392.962621 274.431309 
L 393.937559 263.266915 
L 395.237477 245.40371 
L 396.862375 219.288222 
L 398.487273 190.456101 
L 398.487273 190.456101 
" clip-path="url(#p0bf9ee4de0)" style="fill: none; stroke: #1f77b4; stroke-width: 1.5; stroke-linecap: square"/>
   </g>
   <g id="patch_3">
    <path d="M 57.6 307.584 
L 57.6 41.472 
" style="fill: none; stroke: #000000; stroke-width: 0.8; stroke-linejoin: miter; stroke-linecap: square"/>
   </g>
   <g id="patch_4">
    <path d="M 414.72 307.584 
L 414.72 41.472 
" style="fill: none; stroke: #000000; stroke-width: 0.8; stroke-linejoin: miter; stroke-linecap: square"/>
   </g>
   <g id="patch_5">
    <path d="M 57.6 307.584 
L 414.72 307.584 
" style="fill: none; stroke: #000000; stroke-width: 0.8; stroke-linejoin: miter; stroke-linecap: square"/>
   </g>
   <g id="patch_6">
    <path d="M 57.6 41.472 
L 414.72 41.472 
" style="fill: none; stroke: #000000; stroke-width: 0.8; stroke-linejoin: miter; stroke-linecap: square"/>
   </g>
   <g id="text_19">
    <!-- Horizontal Plot -->
    <g transform="translate(192.309375 35.472) scale(0.12 -0.12)">
     <defs>
      <path id="DejaVuSans-48" d="M 628 4666 
L 1259 4666 
L 1259 2753 
L 3553 2753 
L 3553 4666 
L 4184 4666 
L 4184 0 
L 3553 0 
L 3553 2222 
L 1259 2222 
L 1259 0 
L 628 0 
L 628 4666 
z
" transform="scale(0.015625)"/>
      <path id="DejaVuSans-6f" d="M 1959 3097 
Q 1497 3097 1228 2736 
Q 959 2375 959 1747 
Q 959 1119 1226 758 
Q 1494 397 1959 397 
Q 2419 397 2687 759 
Q 2956 1122 2956 1747 
Q 2956 2369 2687 2733 
Q 2419 3097 1959 3097 
z
M 1959 3584 
Q 2709 3584 3137 3096 
Q 3566 2609 3566 1747 
Q 3566 888 3137 398 
Q 2709 -91 1959 -91 
Q 1206 -91 779 398 
Q 353 888 353 1747 
Q 353 2609 779 3096 
Q 1206 3584 1959 3584 
z
" transform="scale(0.015625)"/>
      <path id="DejaVuSans-72" d="M 2631 2963 
Q 2534 3019 2420 3045 
Q 2306 3072 2169 3072 
Q 1681 3072 1420 2755 
Q 1159 2438 1159 1844 
L 1159 0 
L 581 0 
L 581 3500 
L 1159 3500 
L 1159 2956 
Q 1341 3275 1631 3429 
Q 1922 3584 2338 3584 
Q 2397 3584 2469 3576 
Q 2541 3569 2628 3553 
L 2631 2963 
z
" transform="scale(0.015625)"/>
      <path id="DejaVuSans-7a" d="M 353 3500 
L 3084 3500 
L 3084 2975 
L 922 459 
L 3084 459 
L 3084 0 
L 275 0 
L 275 525 
L 2438 3041 
L 353 3041 
L 353 3500 
z
" transform="scale(0.015625)"/>
      <path id="DejaVuSans-6e" d="M 3513 2113 
L 3513 0 
L 2938 0 
L 2938 2094 
Q 2938 2591 2744 2837 
Q 2550 3084 2163 3084 
Q 1697 3084 1428 2787 
Q 1159 2491 1159 1978 
L 1159 0 
L 581 0 
L 581 3500 
L 1159 3500 
L 1159 2956 
Q 1366 3272 1645 3428 
Q 1925 3584 2291 3584 
Q 2894 3584 3203 3211 
Q 3513 2838 3513 2113 
z
" transform="scale(0.015625)"/>
      <path id="DejaVuSans-74" d="M 1172 4494 
L 1172 3500 
L 2356 3500 
L 2356 3053 
L 1172 3053 
L 1172 1153 
Q 1172 725 1289 603 
Q 1406 481 1766 481 
L 2356 481 
L 2356 0 
L 1766 0 
Q 1100 0 847 248 
Q 594 497 594 1153 
L 594 3053 
L 172 3053 
L 172 3500 
L 594 3500 
L 594 4494 
L 1172 4494 
z
" transform="scale(0.015625)"/>
      <path id="DejaVuSans-61" d="M 2194 1759 
Q 1497 1759 1228 1600 
Q 959 1441 959 1056 
Q 959 750 1161 570 
Q 1363 391 1709 391 
Q 2188 391 2477 730 
Q 2766 1069 2766 1631 
L 2766 1759 
L 2194 1759 
z
M 3341 1997 
L 3341 0 
L 2766 0 
L 2766 531 
Q 2569 213 2275 61 
Q 1981 -91 1556 -91 
Q 1019 -91 701 211 
Q 384 513 384 1019 
Q 384 1609 779 1909 
Q 1175 2209 1959 2209 
L 2766 2209 
L 2766 2266 
Q 2766 2663 2505 2880 
Q 2244 3097 1772 3097 
Q 1472 3097 1187 3025 
Q 903 2953 641 2809 
L 641 3341 
Q 956 3463 1253 3523 
Q 1550 3584 1831 3584 
Q 2591 3584 2966 3190 
Q 3341 2797 3341 1997 
z
" transform="scale(0.015625)"/>
      <path id="DejaVuSans-6c" d="M 603 4863 
L 1178 4863 
L 1178 0 
L 603 0 
L 603 4863 
z
" transform="scale(0.015625)"/>
      <path id="DejaVuSans-50" d="M 1259 4147 
L 1259 2394 
L 2053 2394 
Q 2494 2394 2734 2622 
Q 2975 2850 2975 3272 
Q 2975 3691 2734 3919 
Q 2494 4147 2053 4147 
L 1259 4147 
z
M 628 4666 
L 2053 4666 
Q 2838 4666 3239 4311 
Q 3641 3956 3641 3272 
Q 3641 2581 3239 2228 
Q 2838 1875 2053 1875 
L 1259 1875 
L 1259 0 
L 628 0 
L 628 4666 
z
" transform="scale(0.015625)"/>
     </defs>
     <use xlink:href="#DejaVuSans-48"/>
     <use xlink:href="#DejaVuSans-6f" x="75.195312"/>
     <use xlink:href="#DejaVuSans-72" x="136.376953"/>
     <use xlink:href="#DejaVuSans-69" x="177.490234"/>
     <use xlink:href="#DejaVuSans-7a" x="205.273438"/>
     <use xlink:href="#DejaVuSans-6f" x="257.763672"/>
     <use xlink:href="#DejaVuSans-6e" x="318.945312"/>
     <use xlink:href="#DejaVuSans-74" x="382.324219"/>
     <use xlink:href="#DejaVuSans-61" x="421.533203"/>
     <use xlink:href="#DejaVuSans-6c" x="482.8125"/>
     <use xlink:href="#DejaVuSans-20" x="510.595703"/>
     <use xlink:href="#DejaVuSans-50" x="542.382812"/>
     <use xlink:href="#DejaVuSans-6c" x="602.685547"/>
     <use xlink:href="#DejaVuSans-6f" x="630.46875"/>
     <use xlink:href="#DejaVuSans-74" x="691.650391"/>
    </g>
   </g>
  </g>
 </g>
 <defs>
  <clipPath id="p0bf9ee4de0">
   <rect x="57.6" y="41.472" width="357.12" height="266.112"/>
  </clipPath>
 </defs>
</svg>
